<svg width="20" height="20" viewBox="0 0 20 20" fill="none" xmlns="http://www.w3.org/2000/svg">
<path d="M13.125 17.5C13.125 17.6658 13.0591 17.8247 12.9419 17.9419C12.8247 18.0592 12.6658 18.125 12.5 18.125H7.49999C7.33423 18.125 7.17526 18.0592 7.05805 17.9419C6.94084 17.8247 6.87499 17.6658 6.87499 17.5C6.87499 17.3342 6.94084 17.1753 7.05805 17.0581C7.17526 16.9408 7.33423 16.875 7.49999 16.875H12.5C12.6658 16.875 12.8247 16.9408 12.9419 17.0581C13.0591 17.1753 13.125 17.3342 13.125 17.5ZM17.332 15C17.2236 15.191 17.0661 15.3497 16.8759 15.4595C16.6857 15.5694 16.4696 15.6265 16.25 15.625H3.74999C3.53025 15.6247 3.31448 15.5665 3.12441 15.4562C2.93434 15.346 2.7767 15.1875 2.66737 14.9969C2.55805 14.8063 2.5009 14.5903 2.50169 14.3705C2.50248 14.1508 2.56117 13.9351 2.67187 13.7453C3.10546 12.9984 3.74999 10.8859 3.74999 8.125C3.74999 6.4674 4.40847 4.87769 5.58057 3.70558C6.75268 2.53348 8.34239 1.875 9.99999 1.875C11.6576 1.875 13.2473 2.53348 14.4194 3.70558C15.5915 4.87769 16.25 6.4674 16.25 8.125C16.25 10.8852 16.8953 12.9984 17.3289 13.7453C17.4407 13.9354 17.4998 14.1518 17.5002 14.3723C17.5007 14.5929 17.4423 14.8095 17.3312 15H17.332ZM16.25 14.375C15.6461 13.3383 15 10.9414 15 8.125C15 6.79892 14.4732 5.52715 13.5355 4.58947C12.5978 3.65178 11.3261 3.125 9.99999 3.125C8.67391 3.125 7.40214 3.65178 6.46446 4.58947C5.52678 5.52715 4.99999 6.79892 4.99999 8.125C4.99999 10.9422 4.35312 13.3391 3.74999 14.375H16.25Z" fill="#272626"/>
</svg>
