<svg width="20" height="20" viewBox="0 0 20 20" fill="none" xmlns="http://www.w3.org/2000/svg">
<path d="M19.3461 3.74141C19.3372 3.58851 19.2724 3.44421 19.1641 3.3359C19.0558 3.2276 18.9115 3.16284 18.7586 3.15391C14.7148 2.91953 11.468 4.14922 10.0727 6.45235C9.15078 7.975 9.15234 9.82422 10.0602 11.5883C9.54344 12.2034 9.1658 12.923 8.95312 13.6977L7.68203 12.4219C8.29297 11.1461 8.26953 9.81641 7.60391 8.71172C6.57266 7.00938 4.19219 6.09688 1.23672 6.27031C1.08382 6.27924 0.939516 6.34401 0.831214 6.45231C0.722911 6.56061 0.658148 6.70491 0.649218 6.85781C0.475 9.81328 1.38828 12.1938 3.09063 13.225C3.65239 13.5682 4.29793 13.7499 4.95625 13.75C5.59523 13.7421 6.22428 13.5907 6.79688 13.307L8.75 15.2602V17.5C8.75 17.6658 8.81585 17.8247 8.93306 17.9419C9.05027 18.0592 9.20924 18.125 9.375 18.125C9.54076 18.125 9.69973 18.0592 9.81694 17.9419C9.93415 17.8247 10 17.6658 10 17.5V15.1961C9.99722 14.2018 10.3356 13.2366 10.9586 12.4617C11.7625 12.8818 12.654 13.1066 13.5609 13.118C14.4378 13.1208 15.2984 12.8813 16.0477 12.4258C18.3508 11.032 19.5836 7.78516 19.3461 3.74141ZM3.73516 12.1563C2.53672 11.4305 1.85859 9.7125 1.875 7.5C4.0875 7.48125 5.80547 8.16172 6.53125 9.36016C6.91016 9.98516 6.97187 10.7141 6.72344 11.4648L4.81641 9.55781C4.69824 9.44555 4.5409 9.38389 4.37792 9.38598C4.21495 9.38806 4.05923 9.45373 3.94398 9.56898C3.82873 9.68424 3.76306 9.83995 3.76098 10.0029C3.75889 10.1659 3.82055 10.3232 3.93281 10.4414L5.83984 12.3484C5.08906 12.5969 4.36094 12.5352 3.73516 12.1563ZM15.4 11.3578C14.3531 11.9914 13.1227 12.0398 11.8727 11.5141L16.0672 7.31875C16.1795 7.20059 16.2411 7.04324 16.239 6.88027C16.2369 6.71729 16.1713 6.56158 16.056 6.44633C15.9408 6.33108 15.7851 6.26541 15.6221 6.26332C15.4591 6.26123 15.3018 6.3229 15.1836 6.43516L10.9883 10.625C10.4602 9.375 10.5078 8.14375 11.1445 7.09766C12.2336 5.30078 14.8164 4.29922 18.1234 4.37656C18.1984 7.68281 17.1984 10.2688 15.4 11.3578Z" fill="white"/>
</svg>
